<svg id="Layer_1" data-name="Layer 1" xmlns="http://www.w3.org/2000/svg" viewBox="0 0 871.58 1360.08"><defs><style>.cls-1{fill:#fff;}.cls-2{fill:#231f20;}</style></defs><g id="DsEUPW.tif"><path d="M133.55,943.48c28.08,42,70.28,151.88,119.7,156.29,76.44,12.84,162.45,22.63,210.21,31.44,89.61-25.09,198.44-54.69,277-104.3,4,13.27,11.39,23.95,21.07,15.52,9.93,3.23,15,9.87,31.18,3.42-13.4,95.19-94.19,158.53-179.85,183-333.33,54.86-47.43,79.83,100.1-37.21-74.92,103.93-274.26,116-397.45,77.92-56.06-24.11-4,6.27-32.2,19.28-4.32,22.77-22.15-19.28-42.44-25,4.78,16.07,1.15,14.21-23.63,13.33-6.19-7.28,42.83-18.82-3.94-27-8.24,4.47,11,7.28-2,11.92,9.42,16.61-3.91,3.73-16.91-1.94-1.37,12.43,8.82,15.53,16.19,15.63,18.74,36.58,7.36,11.54,20.29,8.21a180.63,180.63,0,0,0,2.83,41.78c10.09.26,8.36,11.34-1.44,13.92l-7.7-12.64,1.82,1.38c-14.85,7.28-12-20.78-28.17-4.63-5-9.4-2.32-37.62-18.48-33.41-12.22,2.38-4.73,30.62,13,19.4,17.48,87.7-130,32.72-192.69,47.16.52-35.85,3.86-93.59,1.78-119.82,7.74-38.41-16.41-114.88,10.59-134.78-1.61,15.69,4.91,17.09,15.93,18.26-6.1,17.82,17.37,12.77,37.09,22.65-52.6-59-33.86-28.68,14.06-57.27,5.21,26.67-60.54,13.09-11,34.87,5.93-10.22,29.74.21,40.85,12.2,3.88-23.58,15.09-23.24,10.51-48.49,15.83-18.48,25.46,16.53,19.45,30,13.11,30.81,61,76.51,50.45,94.23l24.63,10c-2.81,3.51-4.07,5.07-.12.16-17.63,5-19.53,9.89-32.52,7.11-13.08,11.52,14.19,35.66,13.53,14.25-8.48-2.44-13.32-7.55-5.47-13.15,6.34,5.24,16.27,15.2,24.66,12.37,8.79-19.38,10-13.93,34.57-.12-17.47-47.39-14.63-23.87.59-43.08-70.37-16.92-101.37-97.91-99.42-170C137.17,1007.17,119.92,969.47,133.55,943.48ZM667,1101.65c.65,3.9,2.91,6.42,7.06,5C674.74,1099.63,672.61,1095.59,667,1101.65Zm40.88,5.57c1.07,20.31-39.21,39.83-50.45,61.22,34.29,18.83,63.76-29.23,85.79-51.36-5.19-6.44-6.73,1.21-13,1.87C731,1111.67,713.22,1109.31,707.91,1107.22ZM264,1184.89c17.28-17.24-30.1-31.05-41.13-45.43C210.93,1155.09,253.91,1170.59,264,1184.89Zm-15.82,46.54c-4,25.21,17.13,21.23,32.33,28.46C282.33,1248.82,259.23,1242.76,248.18,1231.43ZM79.06,1179c-18.53.12-55.32,11.14-19,8.66C68,1204.53,85.53,1184.66,79.06,1179Zm650.1-95.89c10.65-3.93,28.45-4.24,16.82-17.65C732,1067.34,717.64,1065.48,729.16,1083.11Zm-607.68,91c-20.94-14.86,37.25-22-1.84-23.42,1.69,17.42-3.15,12.4-19,20.28ZM484.34,1225c-15.16-1.89-22.7-5.89-35.62-5.84C448.48,1237.28,472.69,1226.13,484.34,1225Zm-382.22-84.51c9.39,8.1,40.9,8.65,27.87-6.24C122.11,1136.18,107.62,1137.76,102.12,1140.44ZM76.93,1145c2.39,4.62,4.85,9.39,9.41,18.23C93.49,1143.57,99.44,1134.5,76.93,1145Zm60.38,30.8,20.2,10C155.92,1169.1,133,1161.88,137.31,1175.8Zm31.08,90.35c-22,.51-19.22,1-10.69,20.3C162.18,1277.93,164.54,1273.46,168.39,1266.15ZM49.67,1164.37c9.91,9,13.85-1.75,23.8-7.6C63.59,1152.58,59,1161.7,49.67,1164.37ZM164.2,1291.73c-10.85-8.81-33.93,6.39-16.66,10.33C151.08,1292.23,153.27,1294.56,164.2,1291.73Zm595.85-221.1c11.64,7.15,17,2.14,15.27-11ZM21.46,1188.38c2.28,12.42,4.61,10.11,18.09,14.85C30.2,1194.39,31,1185.68,21.46,1188.38Z" transform="translate(0.81 -0.91)"/><path d="M197.44,1357c-2.42-18,13-11.66,31-10.61C211,1343.64,214.61,1361.32,197.44,1357Z" transform="translate(0.81 -0.91)"/><path d="M674.67,607.71c10.47-18.7-3.54-11-10.19-26.91.07,6.61,2.77,8.51-3.4,8.46,3.69,6.91.92,6.16-6.83,12.13C688.4,483.79,372.36,631,255.13,538.53c-80-35.24-143.67-89.15-164.42-173.35C112,406.41,147.21,449,184,481.79c50.11,73.81,297.83,102.78,399.77,60.89,24.93-6.43,42.55-3.22,64.91,5.76,7.5,13.45,17.54,14.62,4.9-4.65l17.62,16.55c-7.08,8.62,25.56,54.11,13.05,22.3,10.68,3.59,9.3,18.88,18.58,15.09,3.23,4.71,2.6,3.58.55,11.79,10.34-17.71,22.88-16.57,19.52-34.25,7.93-5.43,9.6-4.15-2,4.08,10.8-8.56,27.4-.69,21.9-6.49,17.43-12.16,3.4-9.35,26.44-23.36-18.75,9.54-30.73,8.1-10.18-.58,9.1-48.48-47.11,7.73-70.28,14.37-21-11.38,19.2-15.5,28.56-24.93-2.42-7.17.85-15,2.91-2.89,9.08-5.47,23.26-14.26,29.36-17.73,14.24,3.37-.08-4.14-7.43-10.41,9.47,2.11,49.25,6.31,26.81,7.7,18.66,10.13,8.22,11.57-6.55,18.15,9.57,21.76,28.89,16.78,28.1-6.27-1.53-16.44-33.59-38.13-45.6-56.18,12.21-13.13,8.55,10.69,19.57,17.94-7.14-22.9,8.29,12.35,22.54,13.4,21,25.59,31,24.85,60.69,10.76-10.25,23.23-24.93,36.56-27.22,56,47,73.1,37.44,173.12,47.45,257.72,2.48,34.34-34.54,45.07-57.59,61.71-10.74,84.74-43,18.14-88.07,45.44-75.16,56-123.24,101.87-224.16,66.36C387,940.58,234.34,1013.2,168.85,885.4c16.47-5.11,16.73-35.71,16-47.48-4.37-4.5-14-7.39-8.93-12-2.85-.65-11.19-4.91-5.22-9.47-7.75-4.94-15.5-9.89-30.38-19.41,5,13,6.46,16.78,8,20.87-11.05,10.24-4.39,22.27-4.93,40.68-29.38-31-28-62.88-32.57-105,12.6,21.94,30.93,42,46.3,49.42,22.58,4.55,43.17,7.11,57.46,18,11.57,3.63,55.7,30.13,50.25,18.9,32.65,26.63,12.5,18.78,23.26-1.22,70.51,73.37,168,137.7,269.36,67.51,207.52-65,26.58-20,40.57-291.5,4.62-8.42,17.11-12.55,30.27-12.26-30.2,3.11,2.27,13.91,17.38,26.76C627.35,592.05,657.3,635.57,674.67,607.71Zm8.55,270.56c-7-5.47-8.33.07-6.06,7,3.84.58,2.67-3.58,2.57,2.77,2.11,7.82,4.57,5.82,2.81-.55,2.56,2,4.54,4.76,8.59,3.58C687,902,705.85,938.86,703.74,910.88l-5.52,6.18c-7.78-19.5,8.25-17.23,14.67-3.57,9.78,5.63,27,6.27,13.69,18.37,41.6-22,64.8-37.51,108.6-62.38,5.76-10.41,43.39-39.44,18.89-43.3-4.91,1.21-25.6-185.93-39-253.64-37.21,29.74-3.37,175.49-14.42,238.39,22.59-49.17,2.27,30.65,7.12,55.63-21.76,11.56-46,27-67.75,38-12.55-18.43-14,7.24-29.14,4.11-5.11-16.47-49.93-70.87-9.4-59-20.65-31.33-14-133.53-60.51-117.14-20,3.2-4.34-8.75-23-10.86L650.48,800c-14-13-7.66,13.47-1.91,19.23,7.28,12.74,10,32.22,19.57,49C673.13,859.58,680.72,866.68,683.22,878.27ZM732.33,717c-12.56-7.3-24.9,19.43-29.05,28.89-11.71-11-2.94-18.41-3.61-31.09-34.88,23.83,23.63,98.87,26,140.25,7.75-.95-1.54-8.11,7.45-10.87,15.47-14.66,42.46-28.2,44.14-44.35,1.45-37,11.66-192.62-6.59-133.29C749.1,695.82,767.47,765.41,732.33,717ZM800,840.35c-6.56,4.07-.63,13.37-1.8,23.56,7.75-11.35,2.23-42.54-3.82-49.75C796.64,822.55,788.66,839.52,800,840.35ZM645,662.5c-28.18,12.13-30.81-7-25.27,45.21C632.31,679.61,646.45,677.6,645,662.5Zm122.35-76.78c3.9,59.4,17.46,30.76,12.93-9.56-6.59,2.84-12.42,4-.85,6.82Zm-107.2,59.4c36-30-1.37-37.75-20.09-4.18C646.83,654.46,657.12,627.73,660.19,645.12Zm-63.27,13.5c18.57,1.74,16.15-12.14,24.65-23.76C606.49,627.64,606.72,644.47,596.92,658.62ZM651,649.93c-8,8.91,6.67,26,9.15,42-2.21-11.63,14-17.09,2.23-20.16C655.59,630,659.11,689.17,651,649.93Zm134.85,273.4c8.16,8.25,9.77-5.49,14.42-11.12C794.12,907.27,790.54,919.84,785.86,923.33Zm5.39-24-19.53,11C786,917.14,783.85,912,791.25,899.31Z" transform="translate(0.81 -0.91)"/><path d="M470.1,410.24c10.07-5.22,26.33,5.49,31.92-2.83,3.13,4.7,21.18,1.59,23-5.73,3.74,13.3,17.09,1.63,21-8.32,6.87.08,13.34,4.38,13.09-6.61,2.51,12.28,5.37.45,8.67-4.62,6.37,14.79,33.1-4.39,38.61-18.11,16-10.88-8.3-53.28-7.28-73.67,6.55,7.17,37.32,1.58,16.29-8.52,32.83,2.84-10.71-8.35-23.46-6.84l-48.51-54.05c7.71-25.14,25-3.46,29.25-27.41,18.59,20.5,1.44,57.31,31,47.7-30.07-3.13,36.78-34,23.27-13.86,1.16,15.64,12.29,15.68,1.84,31.25,9.85-8.54,25.71-24.31,21.28-7.69,21.86-5.47,36.95,4.9,41.31-23C791.84,314.29,666.94,371.3,585.9,404.43c-56.12,21.86-307.69,38.77-311.84-25.38-21.29-5.51-33.93-16.26-3.79-14-9.85-12.36-37,2.62-41.12-13.32-14.59-11.72-27.66,9.87-28.17-20,1.18-6.08,54.89-.85,49.37,10.5-10.55,2.4-19.17,6.18-10.4-7.45-12.74-1.91-6,22.18,7.4,14.84,19.59-9.09,20.36-32.94,26.86-55.84l-6.53-2.67h16.65c-1.1-8.58,5.36-10.25,10.09-11.31-25.62-4.62-18.91-7.44-8-25.67-7.59-10.34,8.69-7.87,15.58-10.12,2.51,12.84-4.81,18.43-1.89,29.86,27.26-5.45,25.64-21.76,52.82-36.71-46.34-8.78,4.51,32.13-81.87-18,32.62-6.09,26.94-16.86,54-31.85,25.86-4.26,76.63,13.76,20.1,16.17,2.48,24.12-26.83,4.67-41.05,5.77,3.35,33.89,31.58,23.7,51,9.65-6.33-12.55,17.08-10.58,30.6-11.83,32.08,14.41,19.11,14.82-5.08,24.1l-9.93-15.2c-37.34,86-64,95.37-10.21,169.74,21.89-11.68,17.1-20.07-6.78-22,16.86-2.27.11-14.83,13-12.81,4.87-20.94,1.72,3,13.42,9.19,4.14-4.72,13.82,21.52,3.66,15.69,4.74,10.53,1.79,7.18-9.51,16.14,15.58-8.05,14-3.67,25.66,1.74-.78-6.9-10.62-11.25-10.91-17.38,19.12,7.59,44,28.5,43.38,3.63,13.78-22.93,14.64,7.23,1.46,14.89,9.57,5.7-8.9,19.48,10,12.82,1.31,12.1,8.66,2,20.77,6.52-13-4.51,7.45-10.51,7-5.18C470.72,407.68,468.35,408.94,470.1,410.24Z" transform="translate(0.81 -0.91)"/><path d="M133.44,562.26c71,156,52.76,133.91,221.47,134,75.25-14.62,160.15,60.63,235.51,28,24.07,11-43.66,28.11-47,14.83-21.89,8.47-94.09,10.47-47.34,19.87-57.48,2.48-116.18,33.36-155.53,22.78-84.84-33.1-133.91-65.87-184.28-134.4-8.51,18.47-12.72-12.84-32.52-13.82-28.89-33.57-29.83-70.59-27.19-111.74,25.8,18.14,16.18,22.77,15.31-13.92C127.17,508.89,161.43,605.53,133.44,562.26ZM433.25,730.61,459.91,734C447.2,721.16,449.27,725.45,433.25,730.61Zm-38.86-24.82c.84-8.62-16-1.54-22.39-3C372.87,709.62,388.13,704.13,394.39,705.79Z" transform="translate(0.81 -0.91)"/><path d="M527.13,449.29c-53.68,3.23,35.72-19,52.44-7.5L689.26,396.4c-49,43.62-115.41,81.71-181,106.77-7.64-15.77,12.37-13.6-21.33-19.37,20.49,41-20.95,17-48.25,16.28L435.6,495c25.42-28.22-41.78-18.39-56.94-32.89,26.18-16.9,83.7-.41,120.24-6.51C524.94,452.76,584.8,436.24,527.13,449.29Z" transform="translate(0.81 -0.91)"/><path d="M600.66,91.26c-5.52-4.39-3.37-4,2.32-3.91,2.52-12.08-43.79-13.36-8.47-17.91,15,10.68,30.32,5.82,46.44,10.92-7-7.57-8.71-6.62,0-11.85,7.85,7.84,70.89,40.2,39.6,37.13,52.22,76.46-37.58-9.79,40.5,76.8L674.78,139c-26.45-23.93-158.81-37.43-139.57-82,13.62,9.37,23.49,16,32.32,30.09C603.91,75.83,580.57,90.12,600.66,91.26Zm72.44,23.35c-9.38-11.48-12-25-26.92-18.43C659.52,103.12,658.75,111.66,673.1,114.61ZM642.57,91.08c-6.78-1.9-24.27-2.56-9.05,2.19C629,106.35,647.59,101.54,642.57,91.08Z" transform="translate(0.81 -0.91)"/><path d="M244.11,433.22c-43.54-19.78,113.7,11.13,95,31.19-6.25.33-20.63,3.65-13.31,8.27-9,4.37-13.93-2-21.19,8.46C239.38,476.89,294.48,460.68,244.11,433.22Z" transform="translate(0.81 -0.91)"/><path d="M793,178.85C828.32,246.18,682.13,410,730.94,325c38.26-61.21,83.91-86.46,45.93-185.93Q784.94,159,793,178.85Z" transform="translate(0.81 -0.91)"/><path d="M103.34,166c1.33-.79,3.86-4.4,10.49-11.18-40.89,81.25,8.37,141.28,61.6,189.94-6.77-.47-14.07-5.63-12.08,2.2-32.48-13.08-46.14-60.77-73.63-92C94.31,225.06,98.82,195.54,103.34,166Z" transform="translate(0.81 -0.91)"/><path d="M290.35,27.45c-67.19,19-122.41,67.11-158.71,125.32l54.72-72c1.2-2.38-11.67,11.31-15.15,6C215,27.45,467.39-24.71,290.35,27.45Z" transform="translate(0.81 -0.91)"/><path d="M251,300.83c-2.47-15.83-7.28-6.71-12.37-.85-15.49-1.21-12.7-22.33,4.24-11.31-5-11.77-10.43-1.72-16.65-12.84,10.13,3.6,9.86,2.12,5.41-5.85,13.23-19.2-10.52-20.71-29.72-16.63,42.84-16.63,31.44-39.25,50.2,3.09C261.21,295.71,282.61,254.65,251,300.83Z" transform="translate(0.81 -0.91)"/><path d="M482,190.14c-61.44,2.1-36.21-7.83-21.31,19.85-65.71,8.2-24.42,10.34-44.55-22.19C439,190,466.52,183.54,482,190.14Z" transform="translate(0.81 -0.91)"/><path d="M203,673c-23.37-2.84-30.74-38.59-35.66-55.32C182,615.86,213.46,663,203,673Z" transform="translate(0.81 -0.91)"/><path d="M695.41,73.92C665.09,53.07,610,37.84,589.58,12.69,622.24,35.06,681.89,42,695.41,73.92Z" transform="translate(0.81 -0.91)"/><path d="M523.37,116.47c56.5,17.05-52.32,1.71-75,1C459.89,103,501.42,119.11,523.37,116.47Z" transform="translate(0.81 -0.91)"/><path d="M257.82,1293c16.06-7,12.57,9.44,16.48,22-23.23-3.17-25-9.33-5.9,15-29.64-5.72-21.79-4.83-32-23.45C248.47,1304.64,261.4,1310.33,257.82,1293Z" transform="translate(0.81 -0.91)"/><path d="M531.31,191.77c26.31-7.78,8.11,45.41-25,22.86C510.89,208.37,536.31,201.54,531.31,191.77Z" transform="translate(0.81 -0.91)"/><path d="M319.15,98.1,335,96.33c-13.21,14.71-28,19.58-33.07,2.83-1.46-2.79-8.6-8.1-.59-6.29C307.47,63.18,312.26,78.5,319.15,98.1Z" transform="translate(0.81 -0.91)"/><path d="M265.13,98.6c15.19-17.39,17.38,16.44,32.23,6.89C297.2,129.65,268.43,122.19,265.13,98.6Z" transform="translate(0.81 -0.91)"/><path d="M227.22,319.9c-3.92,8.67-6.4,3.53-16.79.35,12.66-2.39,16.44,1.14,9.2-10.14C244.42,298.42,265.5,320.74,227.22,319.9Z" transform="translate(0.81 -0.91)"/><path d="M741.4,119.45c5.65,19.73,41.65,95.06,20,75.2C774.44,183.4,729.24,135.43,741.4,119.45Z" transform="translate(0.81 -0.91)"/><path d="M238.41,398.34c-65.73-27.82-51.45-61.28-11.61-5C218.57,371.63,227.83,388.16,238.41,398.34Z" transform="translate(0.81 -0.91)"/><path d="M334,306.63c-5-27.11,21.33-4.64,10.35-17.57,7.81-9.8,17.85,9.26,9,13.27-5.18-2.68-6.08.9-8.92,5.19C339,293.66,343.87,308,334,306.63Z" transform="translate(0.81 -0.91)"/><path d="M523,389.16c19,14.86-14.78-4.38-23.33,4.48-1.72-5.37-4.61-11.77,3.13-4.77,19.88-6.51,16.82-3.06,9.37-20.84,2.9-1.3,6.86-2.64,1.89-4.17C510,332.45,520.07,373.4,523,389.16Z" transform="translate(0.81 -0.91)"/><path d="M486.74,371.25c-7.74,11.28-12.69-5.06-16.08,4.77-9.37-3-26.53-.7-23.21-16.2C454.5,374.51,472.11,357.8,486.74,371.25Z" transform="translate(0.81 -0.91)"/><path d="M524.52,192.89c-11.33,10.8-14.73,16.51-31.77,4.32C506.72,194.93,521.78,180.08,524.52,192.89Z" transform="translate(0.81 -0.91)"/><path class="cls-1" d="M189.74,1227.28c-3.43,2.14-3.93,4.52-4,8.85C219,1265.74,148.89,1232.59,189.74,1227.28Z" transform="translate(0.81 -0.91)"/><path d="M574.86,584.53c15.75-6.45,34.45-15.16,48.3-11C608.59,575,585.18,591.33,574.86,584.53Z" transform="translate(0.81 -0.91)"/><path d="M98.87,1087.23c6.61,16.89,10,17-.58,26.44C89.21,1104.32,94.37,1103.44,98.87,1087.23Z" transform="translate(0.81 -0.91)"/><path d="M644.67,407.55c11.82-3,28.82-18,38.29-14.5C671.67,395.77,651.29,418.47,644.67,407.55Z" transform="translate(0.81 -0.91)"/><path d="M244.06,1347.89c6.54-15.52,8.62-23.82,14.53-3.83C256.8,1351.76,252.05,1350.46,244.06,1347.89Z" transform="translate(0.81 -0.91)"/><path d="M674.67,607.71c-8.43,5.68-13.89,15.4-24.72,8.88l-1.74,1.58C661.94,612.35,671.53,598.32,674.67,607.71Z" transform="translate(0.81 -0.91)"/><path d="M49.62,1073.65c-8.48,19-7.35,12.53-26.63,8Z" transform="translate(0.81 -0.91)"/><path class="cls-1" d="M389,376.29c.27,6.19,10.15,10.38,10.92,17.37-11.66-5.39-10.05-9.82-25.67-1.74C392.77,384.37,379.05,375.81,389,376.29Z" transform="translate(0.81 -0.91)"/><path d="M203.09,275.94l-14.31-4.37C193.08,258.44,217.19,264.24,203.09,275.94Z" transform="translate(0.81 -0.91)"/><path d="M210.07,155.76c14-6.11,31.87-25.47,44.22-24.75C239.87,138.11,223.67,152.05,210.07,155.76Z" transform="translate(0.81 -0.91)"/><path class="cls-1" d="M527.13,449.29c8.22.14,27.51-13,28.74-2.68C546.37,447.57,536.4,448.16,527.13,449.29Z" transform="translate(0.81 -0.91)"/><path d="M778.11,304.78c7.78-15.71,12.51-38.83,21.83-50.9C792.17,269.42,787.38,293.32,778.11,304.78Z" transform="translate(0.81 -0.91)"/><path d="M320.13,969.27c-5.14,2.78-9.38,1.53-14.28-.95C312,963.31,314.55,963.38,320.13,969.27Z" transform="translate(0.81 -0.91)"/><path d="M203,673c7.49-2.6,6.81,11.43,2.57,3.21C204.26,676.62,200.11,675.53,203,673Z" transform="translate(0.81 -0.91)"/><path class="cls-1" d="M133.55,943.48c-3.25,2.38-5.06,2.79-1.87-.71C131.47,943.08,133.79,943.09,133.55,943.48Z" transform="translate(0.81 -0.91)"/><path d="M499.93,410.43c.11.37-1-.25.35.28Z" transform="translate(0.81 -0.91)"/><path class="cls-1" d="M470.1,410.24c-1.42-1.08-.09-1.34.22-2C472.21,408.83,471.2,409.32,470.1,410.24Z" transform="translate(0.81 -0.91)"/><path class="cls-1" d="M528.38,1008.22c-.11-.16-.3-.44-.06-.13Z" transform="translate(0.81 -0.91)"/><path d="M130.67,943.76c-.19.66-1.15,1.86-.89,2.16C130.08,945.2,130.38,944.48,130.67,943.76Z" transform="translate(0.81 -0.91)"/><path d="M592.48,1009.41l-.22,0Z" transform="translate(0.81 -0.91)"/><path class="cls-1" d="M208.54,674v0Z" transform="translate(0.81 -0.91)"/><path d="M133.68,943.36l-2.14-.53Z" transform="translate(0.81 -0.91)"/><path class="cls-1" d="M316.31,970.83l-.08-.26C316.16,970.74,316,970.88,316.31,970.83Z" transform="translate(0.81 -0.91)"/><path class="cls-1" d="M307.7,967.69c-.6.29-1.41.31-1.85.72Z" transform="translate(0.81 -0.91)"/><path d="M131.68,942.77l-1.11,1.11Z" transform="translate(0.81 -0.91)"/><path class="cls-1" d="M523.07,1007.74l-.06-.17C522.93,1007.69,522.88,1007.75,523.07,1007.74Z" transform="translate(0.81 -0.91)"/><path class="cls-1" d="M525.83,1007.39l-.18-.1Z" transform="translate(0.81 -0.91)"/><path class="cls-1" d="M522,1008.36l.1-.06Z" transform="translate(0.81 -0.91)"/><path d="M595.24,1009.44c-.06,0-.25,0-.31-.07Z" transform="translate(0.81 -0.91)"/><path class="cls-1" d="M208.68,676.45c-.35,0-.37.07,0,.11Z" transform="translate(0.81 -0.91)"/><path class="cls-1" d="M204,676.21l-.06-.24C203.9,676.07,203.76,676.27,204,676.21Z" transform="translate(0.81 -0.91)"/><path class="cls-1" d="M133.44,562.26l-.19.09Z" transform="translate(0.81 -0.91)"/><path class="cls-1" d="M240.21,1202.53c1.25-.46,1.28-.46,0,.12Z" transform="translate(0.81 -0.91)"/><path class="cls-1" d="M237.25,1203.66c.15-.56,0,0,0,.13C237.34,1203.77,237.35,1203.75,237.25,1203.66Z" transform="translate(0.81 -0.91)"/><path class="cls-1" d="M240.36,1203.73c0-.4-.33-.89-.15-1.2A6.67,6.67,0,0,1,240.36,1203.73Z" transform="translate(0.81 -0.91)"/><path d="M240.36,1203.73c-.26-2.15,1.34-1.54,1-.09C241.06,1203.69,240.21,1203.52,240.36,1203.73Z" transform="translate(0.81 -0.91)"/><path class="cls-1" d="M237.34,1203.76l-.1-.1Z" transform="translate(0.81 -0.91)"/><path class="cls-1" d="M237.5,1206l.1-.17Z" transform="translate(0.81 -0.91)"/><path d="M470.1,410.23l1.54-1.33Z" transform="translate(0.81 -0.91)"/><path class="cls-1" d="M557.67,394.61l.13-.13Z" transform="translate(0.81 -0.91)"/><path class="cls-1" d="M22.18,380.24l-.15-.15Z" transform="translate(0.81 -0.91)"/><path d="M93.62,171.63h0Z" transform="translate(0.81 -0.91)"/><path class="cls-1" d="M707.91,1107.22c5.35,2.06,23,4.48,22.34,11.73,6.25-.65,7.83-8.32,13-1.88-9.43,18.25-86.87,86.91-80.16,44.08C674.25,1143.68,710.36,1124.75,707.91,1107.22Z" transform="translate(0.81 -0.91)"/><path class="cls-1" d="M264,1184.89c-10.09-14.3-53.06-29.79-41.15-45.42C233.9,1153.84,281.27,1167.64,264,1184.89Z" transform="translate(0.81 -0.91)"/><path class="cls-1" d="M248.18,1231.43c11.05,11.32,34.14,17.39,32.33,28.46C265.3,1252.65,244.16,1256.65,248.18,1231.43Z" transform="translate(0.81 -0.91)"/><path class="cls-1" d="M79.06,1179c6.47,5.66-11.1,25.54-19,8.66C23.73,1190.15,60.54,1179.11,79.06,1179Z" transform="translate(0.81 -0.91)"/><path class="cls-1" d="M215.54,1271.6c-8.47-9.44,6-12.85-5.33-18.69C231.89,1242.1,240.43,1274.55,215.54,1271.6Z" transform="translate(0.81 -0.91)"/><path class="cls-1" d="M729.16,1083.11c-11.52-17.64,2.87-15.77,16.82-17.65C757.6,1078.88,739.81,1079.19,729.16,1083.11Z" transform="translate(0.81 -0.91)"/><path class="cls-1" d="M121.48,1174.1l-20.8-3.14c15.81-7.88,20.65-2.86,18.95-20.28C158.73,1152.07,100.54,1159.23,121.48,1174.1Z" transform="translate(0.81 -0.91)"/><path class="cls-1" d="M484.34,1225c-11.61,1.18-35.89,12.32-35.63-5.84C461.65,1219.07,469.16,1223.05,484.34,1225Z" transform="translate(0.81 -0.91)"/><path class="cls-1" d="M102.12,1140.44c5.43-2.67,20-4.27,27.87-6.23C143,1149.09,111.52,1148.54,102.12,1140.44Z" transform="translate(0.81 -0.91)"/><path class="cls-1" d="M76.93,1145c22.52-10.5,16.55-1.41,9.4,18.23C81.78,1154.39,79.32,1149.62,76.93,1145Z" transform="translate(0.81 -0.91)"/><path class="cls-1" d="M137.31,1175.8c-4.36-13.92,18.61-6.7,20.2,10Z" transform="translate(0.81 -0.91)"/><path class="cls-1" d="M168.39,1266.15c-3.85,7.31-6.21,11.78-10.69,20.3C149.16,1267.12,146.41,1266.66,168.39,1266.15Z" transform="translate(0.81 -0.91)"/><path class="cls-1" d="M49.67,1164.37c9.38-2.68,13.89-11.78,23.8-7.6C63.52,1162.62,59.58,1173.38,49.67,1164.37Z" transform="translate(0.81 -0.91)"/><path class="cls-1" d="M164.2,1291.73c-10.93,2.83-13.12.5-16.66,10.34C130.28,1298.12,153.34,1282.92,164.2,1291.73Z" transform="translate(0.81 -0.91)"/><path class="cls-1" d="M760.05,1070.63l15.27-11C777.05,1072.77,771.69,1077.78,760.05,1070.63Z" transform="translate(0.81 -0.91)"/><path class="cls-1" d="M21.46,1188.38c9.53-2.7,8.75,6,18.1,14.85C26.07,1198.49,23.74,1200.8,21.46,1188.38Z" transform="translate(0.81 -0.91)"/><path d="M674.11,1103.69c.53,9.79-9.1-6.87-1.44-5.56C675.5,1102.12,671.44,1101.79,674.11,1103.69Z" transform="translate(0.81 -0.91)"/><path class="cls-1" d="M670.18,1103.08c2.72,3.6,2.41,4.81-1.58,3C668.1,1104.06,665.45,1100.48,670.18,1103.08Z" transform="translate(0.81 -0.91)"/><path d="M670.18,1103.08c-1-.53-2.52-.67-3.15-1.43C668.65,1102,670.36,1101.73,670.18,1103.08Z" transform="translate(0.81 -0.91)"/><path class="cls-1" d="M670.15,1102.17l-3.12-.52C668.81,1100.54,670,1099.34,670.15,1102.17Z" transform="translate(0.81 -0.91)"/><path class="cls-1" d="M240.25,1203.64h1.12C241,1204.31,240.66,1204.32,240.25,1203.64Z" transform="translate(0.81 -0.91)"/><path class="cls-1" d="M672.67,1098.13h0Z" transform="translate(0.81 -0.91)"/><path class="cls-1" d="M672.73,1102.57c1.64-1.5,1.43-.58,1.38,1.12C673.6,1103.34,673.18,1102.68,672.73,1102.57Z" transform="translate(0.81 -0.91)"/><path d="M668.68,1106.28l-.08-.19C668.56,1106.22,668.47,1106.32,668.68,1106.28Z" transform="translate(0.81 -0.91)"/><path class="cls-1" d="M674.09,1106.68v0Z" transform="translate(0.81 -0.91)"/><path class="cls-1" d="M870.77,420.87c-11.86,11.73-20.27,20.14-19-1.75,6.54,7.73,5.47-5.78,8.41-11.76C865.62,414.32,867.93,417.26,870.77,420.87Z" transform="translate(0.81 -0.91)"/><path class="cls-1" d="M710.91,908.67c16.17,2.64,6.77-9.39,23.14-11.79,11.07,18.65,51.7-23.59,73.75-30.32-4.77-25,15.38-104.77-7.1-55.62C794.31,451.45,819,569.4,854.65,833.35c-11.92,6.12-2.78-13.82-3.42.57,3.2-9.64,1.75-7.82,13.32-6.35-14.92,40-59.56,62.34-94.11,76.7,1.29,14.44-31.48,13.67-43.86,27.59C743.28,916.32,714,921.6,710.91,908.67Z" transform="translate(0.81 -0.91)"/><path class="cls-1" d="M748.85,737.75c12.23-17.59,8.64-29.53,11.75-49.85,5.48-11,17.41-33.63,18.77-46.47,0,49.77,3.48,104.55-2.12,158.39,1.67,19.79-48.61,34.46-47.31,53.83-22.62-29.1-29-91-46.25-131.4,30-17.35,3.29,10.46,19.59,23.63,3-9.92,23.35-42.31,27.86-25.81C739.07,705.39,742.09,743.26,748.85,737.75Z" transform="translate(0.81 -0.91)"/><path class="cls-1" d="M710.91,908.67c3.25,12.51-7.6-19-15.95-1.51,2.93,17.94,10.9-5.35,8.77,17.85-18.57-12-8.78-57.94-17.8-47.66-17.37-26.55-13.48,1.73-22.08-17.93-7.08-15.84-10.93-34.83-15.28-40.22-5.65-5.69-12.2-32.31,1.91-19.24-10-24.08-20.54-49.51-32.51-78.34l9.73,1.73c-1.07,18.93,24,4.33,35.93,3,13,42.28,25.51,83,37.88,123.27C661,837.87,705.83,892.1,710.91,908.67Z" transform="translate(0.81 -0.91)"/><path class="cls-1" d="M645,662.5c1.44,15-12.76,17.16-25.27,45.22C614.46,655.29,616.18,674.91,645,662.5Z" transform="translate(0.81 -0.91)"/><path class="cls-1" d="M767.39,585.72c24.44-5.3-11.61-1.81,12.93-9.56C784.85,616.58,771.27,645,767.39,585.72Z" transform="translate(0.81 -0.91)"/><path class="cls-1" d="M660.19,645.12c-3.07-17.4-13.35,9.34-20.09-4.19C658.85,607.35,696.16,615.12,660.19,645.12Z" transform="translate(0.81 -0.91)"/><path class="cls-1" d="M596.92,658.62c9.8-14.15,9.58-31,24.65-23.76C613.06,646.49,615.5,660.34,596.92,658.62Z" transform="translate(0.81 -0.91)"/><path class="cls-1" d="M651,649.93c7.75,24.57,2.34,14.6,8,2.54,3.39,26.06,10,13.89,1.12,39.43C657.68,675.89,643,658.84,651,649.93Z" transform="translate(0.81 -0.91)"/><path class="cls-1" d="M785.86,923.33c4.68-3.49,8.26-16.06,14.42-11.12C795.63,917.84,794,931.58,785.86,923.33Z" transform="translate(0.81 -0.91)"/><path class="cls-1" d="M800,840.35c-11.37-.83-3.4-17.81-5.64-26.19C802.42,814.09,797,834,800,840.35Z" transform="translate(0.81 -0.91)"/><path class="cls-1" d="M800,840.35c.43,9.56,8,14.49-1.79,23.56C799.41,853.73,793.47,844.41,800,840.35Z" transform="translate(0.81 -0.91)"/><path class="cls-1" d="M791.25,899.31c-7.4,12.68-5.23,17.82-19.53,11Z" transform="translate(0.81 -0.91)"/><path class="cls-1" d="M690.38,885.09c-.28,6-4.45,9.45-7.52.35.15-.3.9,1.58-.32,2C686.36,904.44,669.2,874.72,690.38,885.09Z" transform="translate(0.81 -0.91)"/><path class="cls-1" d="M677.13,885.34c-2.24-6.34.84-2.13.35-5.77-3.67-.17,1.11-7.51,4.47-1.33C681,880.22,679.56,887.25,677.13,885.34Z" transform="translate(0.81 -0.91)"/><path d="M649.82,821.73c.31-1,.61-2-.44,1.44C652.78,820.43,651,822.81,649.82,821.73Z" transform="translate(0.81 -0.91)"/><path class="cls-1" d="M744.82,737.2c-2.35-3.24.29-4,2-.43C746.63,736.63,745.43,737.11,744.82,737.2Z" transform="translate(0.81 -0.91)"/><path d="M731,716c2.37,4.48-1,4.09-2,1.32C728.45,717.61,731,715.32,731,716Z" transform="translate(0.81 -0.91)"/><path class="cls-1" d="M316.17,965.68c-1.7-2.22,2,.84,3,1C318.42,968.37,315.5,967.12,316.17,965.68Z" transform="translate(0.81 -0.91)"/><path d="M675.9,880c2-.75,1.6-.17,1.82,2.2C676.78,881.07,676.19,880.85,675.9,880Z" transform="translate(0.81 -0.91)"/><path class="cls-1" d="M748.88,739.3c-2.32,1.45-1.35-1.63-2.06-2.54C748.22,737.4,749.25,737.6,748.88,739.3Z" transform="translate(0.81 -0.91)"/><path class="cls-1" d="M320.13,969.27c-1.22-1.09-2.81-1.37-1-2.61C319.16,967.43,319.87,968.4,320.13,969.27Z" transform="translate(0.81 -0.91)"/><path d="M744.29,733.58l-.42,2.73C743.94,735.42,744.46,734.34,744.29,733.58Z" transform="translate(0.81 -0.91)"/><path class="cls-1" d="M683.22,878.27c-.14-.64.09-1.91-.23-2.14C683.12,876.81,682.83,877.78,683.22,878.27Z" transform="translate(0.81 -0.91)"/><path d="M734.62,718l.15.13Z" transform="translate(0.81 -0.91)"/><path d="M732.34,717.08l0-.09Z" transform="translate(0.81 -0.91)"/><path d="M730.91,715.75l.09.09Z" transform="translate(0.81 -0.91)"/><path class="cls-1" d="M682,878.23l1.27,0A2.12,2.12,0,0,0,682,878.23Z" transform="translate(0.81 -0.91)"/><path d="M648.57,819.2l-.13-.13Z" transform="translate(0.81 -0.91)"/><path d="M470.31,408.24l.14.11Z" transform="translate(0.81 -0.91)"/><path class="cls-1" d="M433.25,730.61c16-5.16,13.94-9.45,26.66,3.38Z" transform="translate(0.81 -0.91)"/><path class="cls-1" d="M394.39,705.79c-6.25-1.66-21.51,3.82-22.4-3C378.41,704.25,395.22,697.17,394.39,705.79Z" transform="translate(0.81 -0.91)"/><path class="cls-1" d="M673.1,114.61c-14.33-2.94-13.6-11.5-26.92-18.42C661.14,89.58,663.72,103.13,673.1,114.61Z" transform="translate(0.81 -0.91)"/><path class="cls-1" d="M642.57,91.08c5,10.46-13.57,15.27-9.05,2.19C618.3,88.53,635.8,89.18,642.57,91.08Z" transform="translate(0.81 -0.91)"/><path class="cls-1" d="M205,673h0Z" transform="translate(0.81 -0.91)"/><path class="cls-1" d="M316.17,966.78c-.06-.37.14-.9-.09-1.13C316.15,966,315.94,966.65,316.17,966.78Z" transform="translate(0.81 -0.91)"/><path class="cls-1" d="M311.21,970.84l-.09-.07Z" transform="translate(0.81 -0.91)"/><path class="cls-1" d="M308.94,969.54l.15.12S308.67,969.49,308.94,969.54Z" transform="translate(0.81 -0.91)"/><path class="cls-1" d="M205.54,676.27l-.06-.24A.41.41,0,0,1,205.54,676.27Z" transform="translate(0.81 -0.91)"/><path class="cls-1" d="M672.76,1102.49c.09-.91.1-.67,0,.07C672.73,1102.57,672.76,1102.49,672.76,1102.49Z" transform="translate(0.81 -0.91)"/><path class="cls-1" d="M670.09,1103.2v0Z" transform="translate(0.81 -0.91)"/><path d="M763.89,892.07c0-.31.13-1.12-.08-1C767.23,890.91,764.34,894.59,763.89,892.07Z" transform="translate(0.81 -0.91)"/><path d="M764.56,893.24c-.71-.34-1.74-.5-.67-1.17C763.75,892.06,764.4,892.92,764.56,893.24Z" transform="translate(0.81 -0.91)"/><path class="cls-1" d="M764.56,893.24c-.82-1.33-.89-1.46-.1,0Z" transform="translate(0.81 -0.91)"/><path d="M765.93,888.89l0,.16S765.87,888.61,765.93,888.89Z" transform="translate(0.81 -0.91)"/><path d="M746.92,736.68c.17,1,.34,2.07.5,3.1C746.05,738.22,743.52,737,746.92,736.68Z" transform="translate(0.81 -0.91)"/><path d="M732,718.77l-.85,1.3A9.43,9.43,0,0,1,732,718.77Z" transform="translate(0.81 -0.91)"/><path class="cls-1" d="M732,718.74l-.81,1.33C731.54,719.85,731.65,719.17,732,718.74Z" transform="translate(0.81 -0.91)"/><path class="cls-1" d="M728.72,717.39l.26-.06C728.89,717.33,728.66,717.17,728.72,717.39Z" transform="translate(0.81 -0.91)"/><path d="M748.88,739.3c0-.55,0-1.1,0-1.65C748.89,738.2,748.88,738.75,748.88,739.3Z" transform="translate(0.81 -0.91)"/><path d="M682.08,878.16c1.74-1.07,1.36-2.36,3.85-.8,3.47-8.1,5.23,4.09,4,5.77C691.17,888.9,676.72,882.27,682.08,878.16Z" transform="translate(0.81 -0.91)"/><path d="M688.1,888c4.36-4.44,3.88,6.12,1,1C689.06,889.11,688,888.05,688.1,888Z" transform="translate(0.81 -0.91)"/><path d="M691,881c-.25.71-1,1.55-.95,2.14C690.06,881.61,689.8,881.07,691,881Z" transform="translate(0.81 -0.91)"/><path class="cls-1" d="M690.21,884.6l-.23,0C690.09,884.67,690.23,884.83,690.21,884.6Z" transform="translate(0.81 -0.91)"/><path d="M682.66,889.54c.05.31.09.61.12.92A4.22,4.22,0,0,1,682.66,889.54Z" transform="translate(0.81 -0.91)"/><path d="M689.08,889a10.06,10.06,0,0,0-1.09.11C688.34,889.05,689,889.25,689.08,889Z" transform="translate(0.81 -0.91)"/><path d="M688.08,889.08c-.05-.35.15-.85-.07-1.08C688.07,888.34,687.86,889,688.08,889.08Z" transform="translate(0.81 -0.91)"/><path d="M683.46,886.44c-.34.34-.6.72-.92,1A8.57,8.57,0,0,0,683.46,886.44Z" transform="translate(0.81 -0.91)"/><path d="M682.86,885.44a6.93,6.93,0,0,1,.59,1.06C683.28,886.22,682.91,885.37,682.86,885.44Z" transform="translate(0.81 -0.91)"/><path d="M682.84,885.34l.14-.18S682.85,885.62,682.84,885.34Z" transform="translate(0.81 -0.91)"/><path d="M677.42,879.62l.06,0Z" transform="translate(0.81 -0.91)"/><path d="M677.13,885.34l0-.26A.76.76,0,0,1,677.13,885.34Z" transform="translate(0.81 -0.91)"/><path d="M316.08,966.81v0Z" transform="translate(0.81 -0.91)"/><path d="M319.15,966.66c-.37.38-.74.75-1.12,1.12C318.41,967.41,318.78,967,319.15,966.66Z" transform="translate(0.81 -0.91)"/><path class="cls-1" d="M690.06,881c0,.71,0,1.42,0,2.14C690.07,882.45,690.07,881.74,690.06,881Z" transform="translate(0.81 -0.91)"/><path class="cls-1" d="M691.1,881.14H690C690.42,880.45,690.71,880.37,691.1,881.14Z" transform="translate(0.81 -0.91)"/><path class="cls-1" d="M684.16,882l-.08.09Z" transform="translate(0.81 -0.91)"/><path class="cls-1" d="M685.93,877.35l.2,0C686.05,877.4,686,877.49,685.93,877.35Z" transform="translate(0.81 -0.91)"/><path class="cls-1" d="M688,889.12c0-.37,0-.75,0-1.12C688.75,888.78,689.67,889.28,688,889.12Z" transform="translate(0.81 -0.91)"/></g><polyline class="cls-2" points="90.54 254.07 91.52 364.27 97.39 520.87 94.43 602.37 114.22 786.28 131.38 942.98"/><polygon class="cls-2" points="780.81 1048.51 793.88 931.95 793.49 1044.94 780.81 1048.51"/><polyline points="804.35 508.13 801.41 201.63 787.8 501.17"/><line x1="114.64" y1="153.92" x2="172.03" y2="85.82"/><path d="M363.34,0" transform="translate(0.81 -0.91)"/><path d="M172.93,89.18l-62.78,73.13Z" transform="translate(0.81 -0.91)"/><path d="M365.44,6.85C492.77-10.87,587.61,16.7,587.61,16.7" transform="translate(0.81 -0.91)"/><path d="M695.41,73.92s47.77,16.52,81.46,65.18" transform="translate(0.81 -0.91)"/><path d="M151.61,344.64S199.7,337,190,369.5" transform="translate(0.81 -0.91)"/><path d="M210.07,155.76s-70.19,25.4-58.46,108.31" transform="translate(0.81 -0.91)"/><path d="M333.35,117.91s16.62-29.61,115-.48" transform="translate(0.81 -0.91)"/></svg>