<?xml version="1.0" encoding="utf-8"?>
<!-- Generator: Adobe Illustrator 22.0.1, SVG Export Plug-In . SVG Version: 6.00 Build 0)  -->
<svg version="1.1" id="Twitter" xmlns="http://www.w3.org/2000/svg" xmlns:xlink="http://www.w3.org/1999/xlink" x="0px" y="0px"
	 viewBox="0 0 64 64" style="enable-background:new 0 0 64 64;" xml:space="preserve">
<style type="text/css">
	.st0{fill:#1DA1F2;}
	.st1{fill:#FFFFFF;}
</style>
<title>Twitter Social Icon</title>
<circle class="st0" cx="32" cy="32" r="31"/>
<path class="st1" d="M26.3,48.4c13.7,0,21.3-11.4,21.3-21.3c0-0.3,0-0.6,0-1c1.5-1.1,2.7-2.4,3.7-3.9c-1.3,0.6-2.8,1-4.3,1.2
	c1.5-0.9,2.7-2.4,3.3-4.1c-1.4,0.9-3,1.5-4.7,1.8c-1.4-1.5-3.3-2.4-5.5-2.4c-4.1,0-7.5,3.3-7.5,7.5c0,0.6,0.1,1.2,0.2,1.7
	c-6.2-0.3-11.7-3.3-15.4-7.8c-0.6,1.1-1,2.4-1,3.8c0,2.6,1.3,4.9,3.3,6.2c-1.2,0-2.4-0.4-3.4-0.9c0,0,0,0.1,0,0.1
	c0,3.6,2.6,6.6,6,7.3c-0.6,0.2-1.3,0.3-2,0.3c-0.5,0-0.9,0-1.4-0.1c1,3,3.7,5.1,7,5.2c-2.6,2-5.8,3.2-9.3,3.2c-0.6,0-1.2,0-1.8-0.1
	C18.2,47.1,22.1,48.4,26.3,48.4"/>
</svg>